# xmcd
#
# Track frame offsets: 
#        150
#        6595
#        20622
#        33852
#        48078
#        63274
#        76659
#        88760
#        104110
#        120448
#        129673
#        147129
#        163102
#        172692
#        181338
#        189799
#        199864
#
# Disc length: 2761 seconds
#
# Revision: 0
# Processed by: cddbd v1.5.2PL0 Copyright (c) Steve Scherf et al.
# Submitted via: ExactAudioCopy v1.1
#
DISCID=d60ac711
DTITLE=Conway Twitty - A Twismas Story
DYEAR=2015
DGENRE=Country
TTITLE0=Introduction
TTITLE1=Santa Claus Is Comin' To Town
TTITLE2=Nine Little Reindeer
TTITLE3=Jingle Bells
TTITLE4=White Christmas
TTITLE5=Christmas Is For The Birds
TTITLE6=Johnny Snowman
TTITLE7=Frosty The Snowman
TTITLE8=Winter Wonderland
TTITLE9=Rudolph The Red Nosed Reindeer
TTITLE10=Happy The Christmas Clown
TTITLE11=Silver Bells
TTITLE12=Ding-a-ling, The Christmas Bell
TTITLE13=Kids
TTITLE14=Here Comes Santa Claus
TTITLE15=The Night Before Christmas - Up On The Housetop - Jolly Ole St.
TTITLE15=Nicholas
TTITLE16=Silent Night
EXTD=
EXTT0=
EXTT1=
EXTT2=
EXTT3=
EXTT4=
EXTT5=
EXTT6=
EXTT7=
EXTT8=
EXTT9=
EXTT10=
EXTT11=
EXTT12=
EXTT13=
EXTT14=
EXTT15=
EXTT16=
PLAYORDER=
